<svg width="584" height="584" viewBox="0 0 584 584" fill="none" xmlns="http://www.w3.org/2000/svg">
<path d="M287.287 0.00220931C288.229 0.00424533 289.171 0.00628136 290.141 0.00837907C307.92 0.0768259 325.254 1.60226 342.792 4.52714C343.961 4.71006 345.13 4.89297 346.334 5.08142C403.939 14.2562 455.62 43.9506 497.418 83.7562C498.584 84.848 499.75 85.9397 500.951 87.0645C510.383 96.1391 518.313 106.108 526.154 116.541C526.74 117.308 527.326 118.076 527.929 118.867C551.201 149.473 566.868 184.567 576.356 221.639C576.764 223.216 577.171 224.794 577.591 226.419C582.401 245.786 584.083 264.437 583.983 284.295C583.968 287.702 583.982 291.108 584 294.515C584.041 339.97 573.39 381.734 553.522 422.529C552.842 423.928 552.842 423.928 552.148 425.355C539.95 450.107 523.143 472.151 504.26 492.196C503.542 492.959 502.825 493.721 502.085 494.508C463.217 535.48 410.522 565.278 355.107 576.889C353.885 577.155 352.663 577.421 351.405 577.695C314.994 585.321 272.461 586.641 236.059 578.255C234.682 577.939 233.306 577.624 231.888 577.298C182.292 565.565 135.573 543.48 98.0617 508.588C95.3509 506.073 92.5653 503.701 89.7285 501.331C76.6228 489.88 65.6077 476.192 55.4337 462.143C54.8785 461.378 54.3233 460.613 53.7512 459.825C37.1066 436.601 25.0598 411.21 15.7508 384.28C15.4091 383.304 15.0673 382.327 14.7152 381.321C-9.86732 310.202 -2.86456 230.537 29.8568 163.22C40.1661 142.685 52.6985 123.022 67.749 105.612C68.6186 104.595 69.4882 103.577 70.3842 102.528C92.8124 76.9763 117.581 55.62 147.115 38.6776C148.701 37.764 148.701 37.764 150.318 36.832C191.85 13.2407 239.408 -0.198172 287.287 0.00220931Z" fill="#FECF53"/>
<path d="M293.188 125.591C298.212 125.618 298.876 125.997 303.023 129.433C303.955 130.588 304.886 131.743 305.846 132.933C306.297 133.384 306.749 133.835 307.214 134.299C307.333 136.532 307.36 138.77 307.348 141.007C307.343 142.358 307.339 143.71 307.334 145.102C307.323 146.524 307.311 147.946 307.3 149.411C307.293 150.838 307.287 152.265 307.281 153.736C307.265 157.274 307.242 160.813 307.214 164.352C308.527 164.333 308.527 164.333 309.866 164.315C319.035 164.193 328.203 164.111 337.373 164.051C340.787 164.024 344.202 163.987 347.617 163.939C352.546 163.873 357.474 163.842 362.403 163.818C363.912 163.79 365.421 163.762 366.975 163.733C382.865 163.728 395.553 168.362 407.105 179.378C413.615 186.345 416.997 193.431 419.421 202.6C420.719 202.516 422.017 202.431 423.355 202.344C436.571 202.45 446.18 208.42 456.367 216.26C457.608 217.106 458.85 217.951 460.13 218.822C469.328 227.494 477.698 241.941 478.546 254.711C478.669 259.45 478.764 264.188 478.815 268.929C478.844 270.957 478.89 272.985 478.955 275.012C479.572 294.549 475.341 310.045 462.209 325.286C450.761 336.301 437.674 341.531 422.157 343.3C422.171 344.443 422.171 344.443 422.185 345.609C422.277 353.632 422.338 361.656 422.383 369.68C422.403 372.663 422.431 375.647 422.467 378.63C422.994 423.663 422.994 423.663 406.678 442.592C391.113 455.962 377.03 458.693 356.748 458.59C354.821 458.593 352.893 458.597 350.965 458.602C346.953 458.608 342.941 458.599 338.928 458.58C333.796 458.556 328.665 458.57 323.534 458.594C319.564 458.609 315.596 458.605 311.627 458.594C309.734 458.591 307.842 458.594 305.949 458.604C303.307 458.615 300.666 458.596 298.024 458.576C296.525 458.573 295.025 458.569 293.481 458.566C288.845 457.971 286.313 456.722 282.583 453.947C278.936 448.486 278.695 443.979 279.847 437.555C283.182 433.457 283.182 433.457 286.688 430.725C287.14 430.274 287.592 429.824 288.057 429.359C290.735 429.219 293.418 429.174 296.099 429.165C298.683 429.151 298.683 429.151 301.318 429.136C302.709 429.133 302.709 429.133 304.127 429.129C307.027 429.119 309.927 429.098 312.827 429.072C321.074 429.001 329.321 428.935 337.569 428.914C342.61 428.9 347.651 428.86 352.692 428.803C354.609 428.786 356.526 428.779 358.443 428.782C374.562 428.803 374.562 428.803 387.595 420.181C392.68 412.199 393.25 404.546 393.422 395.209C392.24 395.788 392.24 395.788 391.035 396.378C381.345 400.731 373.028 401.462 362.492 401.401C360.822 401.413 359.151 401.425 357.43 401.437C352.886 401.463 348.343 401.464 343.799 401.452C339.988 401.445 336.176 401.455 332.365 401.465C323.363 401.488 314.361 401.483 305.359 401.46C296.114 401.437 286.869 401.459 277.624 401.503C269.648 401.539 261.672 401.549 253.696 401.538C248.949 401.531 244.203 401.534 239.456 401.562C234.155 401.592 228.855 401.566 223.554 401.535C221.237 401.559 221.237 401.559 218.874 401.583C203.122 401.397 190.18 396.011 178.854 385.086C168.753 373.191 164.247 358.702 164.903 343.3C163.316 343.099 163.316 343.099 161.696 342.894C145.206 340.531 132.437 334.202 121.399 321.31C111.311 307.046 107.681 292.954 107.983 275.743C108.03 272.772 108.011 269.806 107.985 266.835C108.001 250.79 111.987 239.001 121.115 225.822C122.258 224.09 122.258 224.09 123.424 222.322C135.658 209.449 150.139 203.253 167.64 202.6C167.841 201.839 168.042 201.079 168.249 200.295C172.219 186.813 180.161 177.069 192.271 169.816C202.738 164.492 211.827 163.606 223.455 163.818C225.075 163.826 226.696 163.833 228.366 163.841C233.496 163.872 238.626 163.94 243.756 164.01C247.253 164.038 250.751 164.062 254.248 164.085C262.782 164.145 271.314 164.236 279.847 164.352C279.811 163.477 279.775 162.602 279.738 161.701C279.595 157.719 279.507 153.736 279.419 149.752C279.362 148.376 279.304 147 279.245 145.582C279.075 135.285 279.075 135.285 283.209 130.004C284.931 128.749 284.931 128.749 286.688 127.469C288.057 126.103 288.057 126.103 293.188 125.591Z" fill="#231F1D"/>
<path d="M216.784 192.846C218.171 192.838 219.558 192.83 220.987 192.822C222.507 192.821 224.028 192.819 225.595 192.818C227.197 192.811 228.799 192.804 230.45 192.797C234.847 192.781 239.243 192.77 243.64 192.764C246.388 192.76 249.136 192.755 251.884 192.749C260.486 192.73 269.089 192.717 277.691 192.711C287.614 192.705 297.536 192.681 307.459 192.642C315.133 192.612 322.808 192.598 330.483 192.597C335.064 192.595 339.645 192.585 344.227 192.563C349.34 192.539 354.453 192.542 359.567 192.551C361.079 192.538 362.591 192.526 364.149 192.513C373.054 192.561 379.568 193.199 386.393 199.484C387.047 200.287 387.702 201.09 388.376 201.917C389.048 202.72 389.72 203.523 390.412 204.35C393.219 208.366 393.598 211.916 393.632 216.66C393.644 217.857 393.656 219.054 393.668 220.287C393.677 222.251 393.677 222.251 393.686 224.254C393.702 226.327 393.702 226.327 393.72 228.442C393.754 233.024 393.776 237.606 393.796 242.188C393.803 243.753 393.81 245.318 393.818 246.93C393.855 255.215 393.881 263.5 393.901 271.786C393.924 280.337 393.985 288.888 394.055 297.439C394.101 304.019 394.116 310.599 394.124 317.18C394.133 320.331 394.154 323.483 394.187 326.635C394.23 331.052 394.23 335.468 394.22 339.886C394.243 341.181 394.265 342.477 394.288 343.811C394.206 352.595 392.189 358.338 386.58 365.156C380.846 370.471 376.657 372.15 368.918 372.187C366.84 372.202 366.84 372.202 364.721 372.217C362.443 372.222 362.443 372.222 360.12 372.228C358.52 372.237 356.919 372.246 355.271 372.255C349.964 372.282 344.657 372.298 339.35 372.312C337.52 372.317 335.691 372.323 333.862 372.329C325.266 372.355 316.67 372.374 308.074 372.385C298.163 372.399 288.253 372.435 278.342 372.49C270.674 372.531 263.006 372.551 255.339 372.556C250.762 372.559 246.187 372.574 241.61 372.606C236.5 372.639 231.391 372.638 226.281 372.628C224.02 372.654 224.02 372.654 221.713 372.681C212.959 372.622 207.607 371.722 200.481 366.522C198.396 363.993 198.396 363.993 197.231 361.57C196.048 359.116 194.859 356.664 193.639 354.228C193.505 352.325 193.454 350.417 193.447 348.509C193.439 347.311 193.431 346.112 193.423 344.877C193.422 343.558 193.42 342.24 193.419 340.881C193.412 339.495 193.405 338.109 193.398 336.681C193.378 332.078 193.369 327.476 193.361 322.874C193.353 319.681 193.346 316.489 193.338 313.297C193.323 306.595 193.315 299.893 193.311 293.191C193.303 284.604 193.27 276.018 193.231 267.431C193.206 260.834 193.199 254.236 193.196 247.638C193.192 244.473 193.181 241.307 193.163 238.142C193.14 233.711 193.143 229.281 193.151 224.85C193.139 223.542 193.126 222.235 193.113 220.888C193.166 212.528 194.399 206.749 199.797 200.055C200.474 199.401 201.152 198.748 201.849 198.075C202.527 197.404 203.204 196.733 203.902 196.042C207.918 192.837 211.867 192.862 216.784 192.846Z" fill="#FDCE52"/>
<path d="M164.904 231.286C164.904 258.785 164.904 286.283 164.904 314.614C152.464 311.855 147.255 310.056 140.776 299.897C136.087 291.245 136.535 282.488 136.681 272.865C136.655 271.123 136.628 269.38 136.601 267.585C136.666 255.032 138.834 248.224 147.249 239.104C148.136 238.355 149.023 237.607 149.938 236.836C151.274 235.676 151.274 235.676 152.637 234.493C156.776 231.66 159.933 231.286 164.904 231.286Z" fill="#FCCE52"/>
<path d="M422.158 231.286C432.915 233.076 438.116 237.134 445.014 245.112C450.767 253.432 450.028 262.204 450.039 271.926C450.072 273.486 450.106 275.046 450.14 276.654C450.181 288.401 447.817 296.279 441.658 306.162C435.954 311.698 430.122 314.614 422.158 314.614C422.158 287.116 422.158 259.618 422.158 231.286Z" fill="#FDCE52"/>
<path d="M289.674 315.501C292.008 315.479 294.341 315.441 296.674 315.389C300.038 315.314 303.4 315.284 306.765 315.264C308.322 315.218 308.322 315.218 309.911 315.17C315.517 315.193 317.844 315.715 322.209 319.354C323.592 321.064 323.592 321.064 325.003 322.81C325.681 323.486 325.681 323.486 326.372 324.176C327.179 333.842 327.179 333.842 323.806 339.116C316.985 345.726 306.361 343.714 297.359 343.778C295.045 343.801 292.73 343.838 290.416 343.89C287.071 343.965 283.728 343.995 280.382 344.015C279.355 344.046 278.328 344.077 277.271 344.109C271.84 344.087 268.331 343.386 264.142 340.035C260.69 336.47 260.69 336.47 259.647 333.354C259.849 327.345 260.086 324.918 264.025 320.077C265.182 319.176 266.339 318.274 267.532 317.345C271.308 313.575 284.342 315.539 289.674 315.501Z" fill="#221E1D"/>
<path d="M262.058 240.849C266.826 244.596 269.27 247.226 270.268 253.143C271.792 276.412 271.792 276.412 264.795 284.562C261.357 287.284 259.034 287.33 254.618 287.891C248.485 287.14 246.721 285.174 242.901 280.464C240.428 275.526 241.221 269.764 241.19 264.327C241.162 263.094 241.134 261.86 241.105 260.589C241.055 252.138 242.171 247.426 247.947 241.019C252.77 238.677 257.108 239.231 262.058 240.849Z" fill="#24211E"/>
<path d="M331.674 240.166C332.828 240.095 333.982 240.025 335.17 239.952C339.403 241.031 341.57 242.879 344.186 246.353C346.88 251.751 346.565 257.39 346.47 263.303C346.508 264.554 346.546 265.805 346.585 267.094C346.556 275.146 345.111 279.674 339.625 285.617C336.874 287.617 335.142 288.037 331.76 288.233C325.841 287.201 323.51 286.27 319.53 281.83C316.849 275.462 316.334 269.53 316.366 262.705C316.344 261.768 316.322 260.831 316.299 259.866C316.293 253.422 317.439 249.015 320.898 243.581C325.181 240.731 326.705 240.347 331.674 240.166Z" fill="#24201E"/>
</svg>
